<svg id="a2d6293c-436c-4bb2-83c4-96ddca1bc5c4" data-name="Layer 1" xmlns="http://www.w3.org/2000/svg" viewBox="0 0 800 160"><defs><style>.a5ea23ee-8d09-492b-af91-015fb493b4a9,.ffb02027-35ed-40e8-931b-09ff88cec6a7{opacity:0.95;}.f136a71f-c936-48ce-a01f-54848997ad77{fill:#414042;}.a5ea23ee-8d09-492b-af91-015fb493b4a9{fill:none;stroke:#414042;stroke-miterlimit:10;stroke-width:2px;}</style></defs><g id="fe723fcc-e048-4807-8aef-bcec92ea4b7f" data-name="SvgjsG2292" class="ffb02027-35ed-40e8-931b-09ff88cec6a7"><path class="f136a71f-c936-48ce-a01f-54848997ad77" d="M249.89,58.46l31-17.92h0a7.38,7.38,0,1,0-4.6-6.87h0L244.26,52.18A8.55,8.55,0,0,0,240,59.57V99a8.54,8.54,0,0,0,4.27,7.38l36.09,20.84a3.38,3.38,0,0,0,1.63.44,3.18,3.18,0,0,0,1.64-.44,3.25,3.25,0,0,0,1.63-2.84v-1a4.85,4.85,0,0,0-2.42-4.19l-32.95-19a3.32,3.32,0,0,1-1.65-2.85V61.31A3.31,3.31,0,0,1,249.89,58.46ZM279.26,32h0a4.75,4.75,0,0,1,4.44-3,4.28,4.28,0,0,1,.72.06h0a3.69,3.69,0,0,1,.84.21,4.76,4.76,0,0,1-.57,9.15,4.55,4.55,0,0,1-1,.1,4.76,4.76,0,0,1-4.77-4.77A4.66,4.66,0,0,1,279.26,32Z"/><path class="f136a71f-c936-48ce-a01f-54848997ad77" d="M335.8,54.44,299.69,33.59a3.35,3.35,0,0,0-1.66-.44,3.46,3.46,0,0,0-1.66.44,3.29,3.29,0,0,0-1.65,2.87v1.47a4,4,0,0,0,2,3.47l33.45,19.3a3.15,3.15,0,0,1,1.58,2.73V99.52a3.12,3.12,0,0,1-1.58,2.72l-30.23,17a7.37,7.37,0,1,0,3.93,7.68l31.94-18.44a8.39,8.39,0,0,0,4.19-7.25V61.69A8.41,8.41,0,0,0,335.8,54.44Zm-35.93,74.83a4.72,4.72,0,0,1-2,1.14,4.41,4.41,0,0,1-1.31.18h-.15a4.76,4.76,0,0,1,.15-9.52,5.67,5.67,0,0,1,.73.06,4.77,4.77,0,0,1,4,4.71A4.71,4.71,0,0,1,299.87,129.27Z"/><path class="f136a71f-c936-48ce-a01f-54848997ad77" d="M311.49,85.56l-55.9,14.82c-1,.26-1.9-1.56-1.36-2.68l1.28-2.64a7.11,7.11,0,0,1,4.42-4l55.49-14.71c1-.26,1.9,1.57,1.36,2.68l-1.5,3.11A6,6,0,0,1,311.49,85.56Z"/><path class="f136a71f-c936-48ce-a01f-54848997ad77" d="M311.9,99l-34.61,9.17c-.6.16-1.37-1.71-1.13-2.75l.58-2.45c.45-2,1.33-3.19,2.47-3.49l34.36-9.1c.6-.16,1.37,1.7,1.13,2.75L314,96C313.62,97.68,312.87,98.73,311.9,99Z"/><path class="f136a71f-c936-48ce-a01f-54848997ad77" d="M302.94,63.71l-34.6,9.17c-.6.16-1.37-1.7-1.14-2.74l.58-2.46c.46-2,1.33-3.18,2.48-3.48l34.35-9.1c.6-.16,1.38,1.7,1.14,2.74l-.67,2.89C304.66,62.41,303.92,63.45,302.94,63.71Z"/><path class="f136a71f-c936-48ce-a01f-54848997ad77" d="M321.55,70.48,265.66,85.29c-1,.26-1.91-1.57-1.36-2.68L265.58,80A7.07,7.07,0,0,1,270,76l55.48-14.71c1-.26,1.91,1.57,1.37,2.68L325.35,67A6.12,6.12,0,0,1,321.55,70.48Z"/></g><line class="a5ea23ee-8d09-492b-af91-015fb493b4a9" x1="355.91" y1="40" x2="355.91" y2="120"/><g class="ffb02027-35ed-40e8-931b-09ff88cec6a7"><path class="f136a71f-c936-48ce-a01f-54848997ad77" d="M382.5,59.32a6.8,6.8,0,0,1,0,13.6h-5.32v7.54h-2.63V59.32Zm-5.35,11.25h4.66c3,0,4.75-1.61,4.75-4.41s-1.69-4.49-4.75-4.49h-4.66Z"/><path class="f136a71f-c936-48ce-a01f-54848997ad77" d="M395.73,80.46h-2.64V59.32h8.07c4.07,0,6.74,2.49,6.74,6.3a6,6,0,0,1-4.25,6.07l4.9,8.77h-3.1l-4.52-8.36h-5.2Zm0-10.71h5.2c2.71,0,4.25-1.45,4.25-4s-1.64-4-4.37-4h-5.08Z"/><path class="f136a71f-c936-48ce-a01f-54848997ad77" d="M425.53,80.46h-13.1V59.32h13.1V61.7H415.07v6.78H425v2.34h-9.91v7.27h10.46Z"/><path class="f136a71f-c936-48ce-a01f-54848997ad77" d="M428.9,69.9c0-6.83,3.57-11.07,9.31-11.07,4.46,0,7.93,2.79,8.56,6.87h-2.68a5.81,5.81,0,0,0-5.88-4.44c-4.06,0-6.6,3.34-6.6,8.64s2.54,8.63,6.62,8.63c2.94,0,5.18-1.51,5.86-4h2.68c-.71,3.88-4,6.39-8.54,6.39C432.48,81,428.9,76.71,428.9,69.9Z"/><path class="f136a71f-c936-48ce-a01f-54848997ad77" d="M469.41,69.88c0,6.76-3.66,11.08-9.7,11.08S450,76.65,450,69.88s3.72-11,9.69-11S469.41,63.1,469.41,69.88Zm-16.68,0c0,5.25,2.59,8.65,7,8.65s7-3.4,7-8.65-2.67-8.62-7-8.62S452.73,64.6,452.73,69.88Z"/><path class="f136a71f-c936-48ce-a01f-54848997ad77" d="M473.82,80.46V59.32h2.56l11.47,16.45h.24V59.32h2.6V80.46h-2.56L476.66,64.07h-.23V80.46Z"/><path class="f136a71f-c936-48ce-a01f-54848997ad77" d="M496,80.46V59.32h12.83V61.7H498.65V69H508v2.35h-9.36v9.15Z"/><path class="f136a71f-c936-48ce-a01f-54848997ad77" d="M512.68,80.46V59.32h2.64V80.46Z"/><path class="f136a71f-c936-48ce-a01f-54848997ad77" d="M529.35,81c-5.85,0-9.58-4.31-9.58-11.08s3.79-11,9.58-11c4.68,0,8.08,2.6,8.84,6.79h-2.68a5.93,5.93,0,0,0-6.16-4.36c-4.19,0-6.87,3.37-6.87,8.62s2.63,8.65,6.88,8.65c3.78,0,6.34-2.42,6.34-6V72h-5.94V69.71h8.57v2.58C538.33,77.5,534.75,81,529.35,81Z"/></g><g class="ffb02027-35ed-40e8-931b-09ff88cec6a7"><path class="f136a71f-c936-48ce-a01f-54848997ad77" d="M378.29,97.89H375l-.86,2.37h-.78l2.9-7.75H377l2.89,7.75h-.77Zm-3-.63h2.81l-1.37-3.78h-.07Z"/><path class="f136a71f-c936-48ce-a01f-54848997ad77" d="M389,100.26h-4.62V92.51h.74V99.6H389Z"/><path class="f136a71f-c936-48ce-a01f-54848997ad77" d="M395.05,97.89h-3.26l-.86,2.37h-.78l2.9-7.75h.73l2.9,7.75h-.77Zm-3-.63h2.82l-1.38-3.78h-.07Z"/><path class="f136a71f-c936-48ce-a01f-54848997ad77" d="M398.13,100.26V92.51h.73L403.38,99h.07V92.51h.72v7.75h-.71l-4.53-6.44h-.07v6.44Z"/><path class="f136a71f-c936-48ce-a01f-54848997ad77" d="M409.43,100.43c-2.1,0-3.47-1.6-3.47-4s1.37-4,3.46-4a3,3,0,0,1,3.17,2.43h-.75A2.35,2.35,0,0,0,409.42,93c-1.64,0-2.71,1.33-2.71,3.36s1.07,3.35,2.72,3.35a2.31,2.31,0,0,0,2.5-2.42v-.27h-2.36V96.4h3.1v.86A3,3,0,0,1,409.43,100.43Z"/><path class="f136a71f-c936-48ce-a01f-54848997ad77" d="M415.18,97.53a2.27,2.27,0,0,0,4.53,0v-5h.74v5.07a3,3,0,0,1-6,0V92.51h.73Z"/><path class="f136a71f-c936-48ce-a01f-54848997ad77" d="M426.45,97.89H423.2l-.86,2.37h-.78l2.9-7.75h.73l2.9,7.75h-.78Zm-3-.63h2.81l-1.37-3.78h-.07Z"/><path class="f136a71f-c936-48ce-a01f-54848997ad77" d="M432.37,100.43c-2.1,0-3.47-1.6-3.47-4s1.37-4,3.45-4a3,3,0,0,1,3.18,2.43h-.75A2.35,2.35,0,0,0,432.35,93c-1.64,0-2.7,1.33-2.7,3.36s1.06,3.35,2.72,3.35a2.31,2.31,0,0,0,2.5-2.42v-.27h-2.36V96.4h3.09v.86A3,3,0,0,1,432.37,100.43Z"/><path class="f136a71f-c936-48ce-a01f-54848997ad77" d="M442.12,100.26h-4.68V92.51h4.68v.67h-3.95V96h3.75v.65h-3.75v3h3.95Z"/><path class="f136a71f-c936-48ce-a01f-54848997ad77" d="M451.18,97.89h-3.25l-.86,2.37h-.78l2.9-7.75h.73l2.9,7.75H452Zm-3-.63H451l-1.37-3.78h-.07Z"/><path class="f136a71f-c936-48ce-a01f-54848997ad77" d="M457.1,100.43c-2.1,0-3.47-1.6-3.47-4s1.37-4,3.45-4a3,3,0,0,1,3.18,2.43h-.75A2.35,2.35,0,0,0,457.08,93c-1.63,0-2.7,1.33-2.7,3.36s1.07,3.35,2.72,3.35a2.31,2.31,0,0,0,2.5-2.42v-.27h-2.36V96.4h3.09v.86A3,3,0,0,1,457.1,100.43Z"/><path class="f136a71f-c936-48ce-a01f-54848997ad77" d="M462.17,100.26V92.51h.73L467.41,99h.07V92.51h.73v7.75h-.71L463,93.82h-.07v6.44Z"/><path class="f136a71f-c936-48ce-a01f-54848997ad77" d="M477,96.39c0,2.47-1.33,4-3.51,4s-3.51-1.57-3.51-4,1.35-4,3.51-4S477,93.91,477,96.39Zm-6.27,0c0,2,1.05,3.35,2.76,3.35s2.76-1.31,2.76-3.35S475.2,93,473.51,93,470.75,94.33,470.75,96.39Z"/><path class="f136a71f-c936-48ce-a01f-54848997ad77" d="M479.05,98.25c.1.89,1,1.5,2.17,1.5s2-.65,2-1.51-.53-1.2-1.73-1.49l-.88-.23c-1.46-.36-2.07-1-2.07-2,0-1.25,1.08-2.15,2.65-2.15a2.43,2.43,0,0,1,2.66,2.06h-.74A1.76,1.76,0,0,0,481.16,93c-1.11,0-1.88.62-1.88,1.46,0,.68.48,1.07,1.66,1.36l.77.2c1.6.39,2.25,1,2.25,2.12,0,1.36-1.11,2.27-2.8,2.27s-2.76-.89-2.85-2.18Z"/><path class="f136a71f-c936-48ce-a01f-54848997ad77" d="M487.61,100.26V93.18H485v-.67h5.93v.67h-2.6v7.08Z"/><path class="f136a71f-c936-48ce-a01f-54848997ad77" d="M492.43,100.26V92.51h.74v7.75Z"/><path class="f136a71f-c936-48ce-a01f-54848997ad77" d="M495,96.39c0-2.49,1.31-4,3.41-4a3,3,0,0,1,3.1,2.53h-.75A2.34,2.34,0,0,0,498.38,93c-1.62,0-2.66,1.31-2.66,3.36s1,3.35,2.67,3.35a2.23,2.23,0,0,0,2.34-1.68h.75a2.91,2.91,0,0,1-3.09,2.37C496.28,100.43,495,98.88,495,96.39Z"/><path class="f136a71f-c936-48ce-a01f-54848997ad77" d="M505.81,96.39c0-2.49,1.31-4,3.41-4a3,3,0,0,1,3.09,2.53h-.75A2.33,2.33,0,0,0,509.22,93c-1.63,0-2.66,1.31-2.66,3.36s1,3.35,2.66,3.35a2.23,2.23,0,0,0,2.34-1.68h.75a2.9,2.9,0,0,1-3.09,2.37C507.12,100.43,505.81,98.88,505.81,96.39Z"/><path class="f136a71f-c936-48ce-a01f-54848997ad77" d="M520.68,96.39c0,2.47-1.33,4-3.51,4s-3.51-1.57-3.51-4,1.35-4,3.51-4S520.68,93.91,520.68,96.39Zm-6.27,0c0,2,1.05,3.35,2.76,3.35s2.76-1.31,2.76-3.35S518.86,93,517.17,93,514.41,94.33,514.41,96.39Z"/><path class="f136a71f-c936-48ce-a01f-54848997ad77" d="M522.47,100.26V92.51h.72L527.71,99h.07V92.51h.73v7.75h-.71l-4.54-6.44h-.07v6.44Z"/><path class="f136a71f-c936-48ce-a01f-54848997ad77" d="M530.63,100.26V92.51h4.6v.67h-3.86v2.91h3.55v.66h-3.55v3.51Z"/><path class="f136a71f-c936-48ce-a01f-54848997ad77" d="M536.79,100.26V92.51h.74v7.75Z"/><path class="f136a71f-c936-48ce-a01f-54848997ad77" d="M542.8,100.43c-2.1,0-3.47-1.6-3.47-4s1.37-4,3.46-4A3,3,0,0,1,546,94.78h-.75A2.35,2.35,0,0,0,542.79,93c-1.64,0-2.71,1.33-2.71,3.36s1.07,3.35,2.72,3.35a2.32,2.32,0,0,0,2.51-2.42v-.27h-2.37V96.4H546v.86A3,3,0,0,1,542.8,100.43Z"/><path class="f136a71f-c936-48ce-a01f-54848997ad77" d="M553.51,92.51a2.42,2.42,0,1,1,0,4.83h-2v2.92h-.74V92.51Zm-2,4.18h1.84a1.77,1.77,0,1,0,0-3.52h-1.84Z"/><path class="f136a71f-c936-48ce-a01f-54848997ad77" d="M558.28,100.26h-.73V92.51h2.78a2.23,2.23,0,0,1,2.47,2.27A2.14,2.14,0,0,1,561.14,97l1.88,3.29h-.86l-1.78-3.17h-2.1Zm0-3.83h2a1.56,1.56,0,0,0,1.78-1.63,1.6,1.6,0,0,0-1.82-1.63h-2Z"/><path class="f136a71f-c936-48ce-a01f-54848997ad77" d="M569.32,100.26h-4.68V92.51h4.68v.67h-4V96h3.75v.65h-3.75v3h4Z"/><path class="f136a71f-c936-48ce-a01f-54848997ad77" d="M573.77,92.51a2.42,2.42,0,1,1,0,4.83h-2v2.92H571V92.51Zm-2,4.18h1.84a1.77,1.77,0,1,0,0-3.52h-1.84Z"/><path class="f136a71f-c936-48ce-a01f-54848997ad77" d="M581.55,97.89h-3.26l-.86,2.37h-.78l2.9-7.75h.73l2.9,7.75h-.77Zm-3-.63h2.82L580,93.48h-.07Z"/><path class="f136a71f-c936-48ce-a01f-54848997ad77" d="M585.37,100.26h-.74V92.51h2.78a2.23,2.23,0,0,1,2.48,2.27A2.15,2.15,0,0,1,588.23,97l1.88,3.29h-.86l-1.79-3.17h-2.09Zm0-3.83h2a1.57,1.57,0,0,0,1.79-1.63,1.6,1.6,0,0,0-1.82-1.63h-2Z"/><path class="f136a71f-c936-48ce-a01f-54848997ad77" d="M596.23,97.89H593l-.86,2.37h-.78l2.9-7.75H595l2.9,7.75h-.78Zm-3-.63H596l-1.37-3.78h-.07Z"/><path class="f136a71f-c936-48ce-a01f-54848997ad77" d="M600.39,100.26V93.18h-2.6v-.67h5.93v.67h-2.6v7.08Z"/><path class="f136a71f-c936-48ce-a01f-54848997ad77" d="M605.21,100.26V92.51H606v7.75Z"/><path class="f136a71f-c936-48ce-a01f-54848997ad77" d="M614.77,96.39c0,2.47-1.32,4-3.51,4s-3.51-1.57-3.51-4,1.35-4,3.51-4S614.77,93.91,614.77,96.39Zm-6.27,0c0,2,1,3.35,2.76,3.35S614,98.43,614,96.39,613,93,611.26,93,608.5,94.33,608.5,96.39Z"/><path class="f136a71f-c936-48ce-a01f-54848997ad77" d="M616.56,100.26V92.51h.73L621.81,99h.07V92.51h.72v7.75h-.71l-4.53-6.44h-.07v6.44Z"/><path class="f136a71f-c936-48ce-a01f-54848997ad77" d="M629.69,100.26V93.18h-2.6v-.67H633v.67h-2.6v7.08Z"/><path class="f136a71f-c936-48ce-a01f-54848997ad77" d="M640.86,96.39c0,2.47-1.32,4-3.5,4s-3.52-1.57-3.52-4,1.35-4,3.52-4S640.86,93.91,640.86,96.39Zm-6.26,0c0,2,1,3.35,2.76,3.35s2.75-1.31,2.75-3.35S639.05,93,637.36,93,634.6,94.33,634.6,96.39Z"/><path class="f136a71f-c936-48ce-a01f-54848997ad77" d="M649.32,96.39c0,2.47-1.32,4-3.5,4s-3.52-1.57-3.52-4,1.35-4,3.52-4S649.32,93.91,649.32,96.39Zm-6.26,0c0,2,1,3.35,2.76,3.35s2.75-1.31,2.75-3.35S647.51,93,645.82,93,643.06,94.33,643.06,96.39Z"/><path class="f136a71f-c936-48ce-a01f-54848997ad77" d="M655.73,100.26h-4.62V92.51h.74V99.6h3.88Z"/></g></svg>